<?xml version="1.0" encoding="utf-8"?>
<!-- Generator: Adobe Illustrator 18.1.1, SVG Export Plug-In . SVG Version: 6.00 Build 0)  -->
<svg version="1.1" id="Layer_1" xmlns="http://www.w3.org/2000/svg" xmlns:xlink="http://www.w3.org/1999/xlink" x="0px" y="0px"
	 width="16px" height="16px" viewBox="-387 389 16 16" enable-background="new -387 389 16 16" xml:space="preserve">
<g>
	<path fill="#FFFFFF" d="M-380.2,400.6l-2.2,2.1c0,0-0.1,0.1-0.2,0.1s-0.1,0-0.2-0.1l-2.2-2.1c-0.1-0.1-0.1-0.1,0-0.2
		c0-0.1,0.1-0.1,0.2-0.1h1.3v-8.9c0-0.1,0.1-0.2,0.2-0.2h1.3c0.1,0,0.2,0.1,0.2,0.2v8.9h1.3c0.1,0,0.2,0.1,0.2,0.2
		C-380.1,400.5-380.1,400.5-380.2,400.6z M-376.8,392.6c0,0.1-0.1,0.2-0.2,0.2h-1.7c-0.1,0-0.2-0.1-0.2-0.2v-1.2
		c0-0.1,0.1-0.2,0.2-0.2h1.7c0.1,0,0.2,0.1,0.2,0.2V392.6z M-375.5,395.9c0,0.1-0.1,0.2-0.2,0.2h-3.1c-0.1,0-0.2-0.1-0.2-0.2v-1.2
		c0-0.1,0.1-0.2,0.2-0.2h3.1c0.1,0,0.2,0.1,0.2,0.2V395.9z M-374.2,399.2c0,0.1-0.1,0.2-0.2,0.2h-4.4c-0.1,0-0.2-0.1-0.2-0.2v-1.3
		c0-0.1,0.1-0.2,0.2-0.2h4.4c0.1,0,0.2,0.1,0.2,0.2V399.2z M-372.9,402.5c0,0.1-0.1,0.2-0.2,0.2h-5.7c-0.1,0-0.2-0.1-0.2-0.2v-1.2
		c0-0.1,0.1-0.2,0.2-0.2h5.7c0.1,0,0.2,0.1,0.2,0.2V402.5z"/>
</g>
</svg>
