<?xml version="1.0" encoding="utf-8"?>
<!-- Generator: Adobe Illustrator 18.1.1, SVG Export Plug-In . SVG Version: 6.00 Build 0)  -->
<svg version="1.1" id="Layer_1" xmlns="http://www.w3.org/2000/svg" xmlns:xlink="http://www.w3.org/1999/xlink" x="0px" y="0px"
	 width="16px" height="16px" viewBox="-387 389 16 16" enable-background="new -387 389 16 16" xml:space="preserve">
<g>
	<path fill="#337AB7" d="M-380.3,400.7l-2.2,2.1c0,0-0.1,0.1-0.2,0.1c-0.1,0-0.1,0-0.2-0.1l-2.2-2.1c-0.1-0.1-0.1-0.1,0-0.2
		c0-0.1,0.1-0.1,0.2-0.1h1.3v-8.9c0-0.1,0.1-0.2,0.2-0.2h1.3c0.1,0,0.2,0.1,0.2,0.2v8.9h1.3c0.1,0,0.2,0.1,0.2,0.2
		C-380.2,400.6-380.2,400.6-380.3,400.7z M-376.9,392.7c0,0.1-0.1,0.2-0.2,0.2h-1.7c-0.1,0-0.2-0.1-0.2-0.2v-1.2
		c0-0.1,0.1-0.2,0.2-0.2h1.7c0.1,0,0.2,0.1,0.2,0.2V392.7z M-375.6,396c0,0.1-0.1,0.2-0.2,0.2h-3.1c-0.1,0-0.2-0.1-0.2-0.2v-1.2
		c0-0.1,0.1-0.2,0.2-0.2h3.1c0.1,0,0.2,0.1,0.2,0.2V396z M-374.3,399.3c0,0.1-0.1,0.2-0.2,0.2h-4.4c-0.1,0-0.2-0.1-0.2-0.2V398
		c0-0.1,0.1-0.2,0.2-0.2h4.4c0.1,0,0.2,0.1,0.2,0.2V399.3z M-373,402.6c0,0.1-0.1,0.2-0.2,0.2h-5.7c-0.1,0-0.2-0.1-0.2-0.2v-1.2
		c0-0.1,0.1-0.2,0.2-0.2h5.7c0.1,0,0.2,0.1,0.2,0.2V402.6z"/>
</g>
</svg>
