<?xml version="1.0" encoding="utf-8"?>
<!-- Generator: Adobe Illustrator 18.1.1, SVG Export Plug-In . SVG Version: 6.00 Build 0)  -->
<svg version="1.1" id="Layer_1" xmlns="http://www.w3.org/2000/svg" xmlns:xlink="http://www.w3.org/1999/xlink" x="0px" y="0px"
	 width="16px" height="16px" viewBox="-387 389 16 16" enable-background="new -387 389 16 16" xml:space="preserve">
<text transform="matrix(1 0 0 1 -357.2813 1174.6844)" font-family="'MyriadPro-Regular'" font-size="12"></text>
<text transform="matrix(1 0 0 1 -357.2813 1174.6844)" font-family="'MyriadPro-Regular'" font-size="12"></text>
<g>
	<path fill="#337AB7" d="M-379.9,400.7l-2.3,2.1c-0.1,0-0.1,0.1-0.2,0.1c-0.1,0-0.1,0-0.2-0.1l-2.3-2.1c-0.1-0.1-0.1-0.2-0.1-0.2
		c0-0.1,0.1-0.1,0.2-0.1h1.4v-9.2c0-0.1,0.1-0.2,0.2-0.2h1.4c0.1,0,0.2,0.1,0.2,0.2v9.2h1.4c0.1,0,0.2,0.1,0.2,0.2
		C-379.8,400.5-379.9,400.6-379.9,400.7z M-373.1,396h-2.1v-0.7h0.5l-0.3-1h-1.8l-0.3,1h0.5v0.7h-2.1v-0.7h0.5l1.7-4.4h1.2l1.7,4.4
		h0.5V396z M-373.7,402.8h-4.3v-0.6l2.7-3.5c0.1-0.1,0.1-0.1,0.2-0.2l0.1-0.1v0c0,0-0.1,0-0.1,0c-0.1,0-0.1,0-0.2,0h-1.7v0.8h-0.9
		v-1.5h4.2v0.6l-2.7,3.6c0,0.1-0.1,0.1-0.2,0.2l-0.1,0.1v0l0.1,0c0.1,0,0.1,0,0.2,0h1.8v-0.8h0.9V402.8z M-375.2,393.6l-0.5-1.5
		l-0.1-0.3c0-0.1,0-0.1,0-0.1h0l0,0.1c0,0.1,0,0.2-0.1,0.3l-0.5,1.5H-375.2z"/>
</g>
</svg>
